<svg xmlns="http://www.w3.org/2000/svg" width="69.507" height="69.367"><path d="M22.111 67.752c-5.008-1.996-7.2-4.555-5.425-6.331.846-.846 2.567-.598 6.765.972 12.104 4.529 23.707 2.104 32.63-6.819 6.415-6.415 8.926-12.343 8.926-21.074 0-8.73-2.51-14.66-8.926-21.074C49.666 7.01 43.738 4.5 35.007 4.5c-8.73 0-14.659 2.51-21.074 8.926-6.426 6.425-8.926 12.343-8.926 21.126 0 6.969 2.096 13.222 6.108 18.224 3.204 3.996 3.477 6.988.686 7.525-2.204.425-8.226-7.768-10.367-14.103C-.998 39-.239 25.541 2.97 19 6.101 12.614 13.114 5.6 19.507 2.457 23.854.321 25.88 0 35.007 0s11.153.321 15.5 2.457C56.897 5.597 63.91 12.61 67.05 19c2.136 4.347 2.457 6.372 2.457 15.5S69.186 45.653 67.05 50c-3.155 6.42-10.182 13.412-16.543 16.46-6.75 3.236-21.8 3.92-28.396 1.292zm5.364-17.474c-.287-.749-.398-8.312-.245-16.807.249-13.866.458-15.48 2.05-15.786 2.288-.44 20.727 14.463 20.727 16.75 0 1.962-17.165 16.41-20.06 16.885-1.072.176-2.184-.293-2.472-1.042zm13.032-13.266l3-2.512-3-2.512a162.45 162.45 0 0 0-5.75-4.568l-2.75-2.056v18.272l2.75-2.056a162.45 162.45 0 0 0 5.75-4.568z"/><text style="line-height:125%" x="-8.268" y="-25.454" transform="scale(1.27354 .78521)" font-size="121.69" font-weight="400" letter-spacing="0" word-spacing="0" font-family="Sans"><tspan x="-8.268" y="-25.454">p</tspan></text></svg>